PathFileType	4	(X/Y/Z)	Kaydara	
DataRate	CameraRate	NumFrames	NumMarkers	Units	OrigDataRate	OrigDataStartFrame	OrigNumFrames	
240.00	240.00	4	72	mm	240.00	1	359	
Frame#	Time	Hips			RightUpLeg			RightLeg			RightFoot			RightFoot_End			LeftUpLeg			LeftLeg			LeftFoot			LeftFoot_End			Spine			Spine1			Spine2			Spine3			Neck			Head			Head_End			RightShoulder			RightArm			RightForeArm			RightHand			RightHandThumb1			RightHandThumb2			RightHandThumb3			RightHandThumb3_End			RightInHandIndex			RightHandIndex1			RightHandIndex2			RightHandIndex3			RightHandIndex3_End			RightInHandMiddle			RightHandMiddle1			RightHandMiddle2			RightHandMiddle3			RightHandMiddle3_End			RightInHandRing			RightHandRing1			RightHandRing2			RightHandRing3			RightHandRing3_End			RightInHandPinky			RightHandPinky1			RightHandPinky2			RightHandPinky3			RightHandPinky3_End			LeftShoulder			LeftArm			LeftForeArm			LeftHand			LeftHandThumb1			LeftHandThumb2			LeftHandThumb3			LeftHandThumb3_End			LeftInHandIndex			LeftHandIndex1			LeftHandIndex2			LeftHandIndex3			LeftHandIndex3_End			LeftInHandMiddle			LeftHandMiddle1			LeftHandMiddle2			LeftHandMiddle3			LeftHandMiddle3_End			LeftInHandRing			LeftHandRing1			LeftHandRing2			LeftHandRing3			LeftHandRing3_End			LeftInHandPinky			LeftHandPinky1			LeftHandPinky2			LeftHandPinky3			LeftHandPinky3_End			
		X1	Y1	Z1	X2	Y2	Z2	X3	Y3	Z3	X4	Y4	Z4	X5	Y5	Z5	X6	Y6	Z6	X7	Y7	Z7	X8	Y8	Z8	X9	Y9	Z9	X10	Y10	Z10	X11	Y11	Z11	X12	Y12	Z12	X13	Y13	Z13	X14	Y14	Z14	X15	Y15	Z15	X16	Y16	Z16	X17	Y17	Z17	X18	Y18	Z18	X19	Y19	Z19	X20	Y20	Z20	X21	Y21	Z21	X22	Y22	Z22	X23	Y23	Z23	X24	Y24	Z24	X25	Y25	Z25	X26	Y26	Z26	X27	Y27	Z27	X28	Y28	Z28	X29	Y29	Z29	X30	Y30	Z30	X31	Y31	Z31	X32	Y32	Z32	X33	Y33	Z33	X34	Y34	Z34	X35	Y35	Z35	X36	Y36	Z36	X37	Y37	Z37	X38	Y38	Z38	X39	Y39	Z39	X40	Y40	Z40	X41	Y41	Z41	X42	Y42	Z42	X43	Y43	Z43	X44	Y44	Z44	X45	Y45	Z45	X46	Y46	Z46	X47	Y47	Z47	X48	Y48	Z48	X49	Y49	Z49	X50	Y50	Z50	X51	Y51	Z51	X52	Y52	Z52	X53	Y53	Z53	X54	Y54	Z54	X55	Y55	Z55	X56	Y56	Z56	X57	Y57	Z57	X58	Y58	Z58	X59	Y59	Z59	X60	Y60	Z60	X61	Y61	Z61	X62	Y62	Z62	X63	Y63	Z63	X64	Y64	Z64	X65	Y65	Z65	X66	Y66	Z66	X67	Y67	Z67	X68	Y68	Z68	X69	Y69	Z69	X70	Y70	Z70	X71	Y71	Z71	X72	Y72	Z72	

1	0.0	4198.941	914.58397	126.699	4254.384293085768	897.1751055678179	53.21222645113341	4159.779322594925	500.4139497000374	-42.384230033127125	4142.87722657357	108.91602722550286	-118.02660415952597	3991.0491614058687	31.918306452197413	-31.088434420477668	4158.268166851595	906.1210972041135	211.65778345319205	4068.353624467758	504.06019861957327	287.0204509552544	3996.4222633721274	79.57074219267719	377.95805216488793	3874.7037123281116	-2.814898668580037	255.74463355029815	4130.222457049609	1030.7228035997277	78.8059753895562	4065.879330555659	1084.69889335193	29.841299784754728	3996.082842060939	1133.8175129154881	-24.59940221529175	3926.0470274004565	1169.6526717498652	-81.61115324952222	3850.1882878602155	1208.5159933907994	-140.8592992371735	3779.559482623499	1244.374305239642	-192.21088935551518	3640.9627641814272	1323.014874248582	-198.86585215318394	3895.5650136605564	1196.7558547185663	-145.64017257077347	3952.3366881717384	1185.3163881849616	-262.6290662003487	4035.1706623596647	927.900786655731	-292.0431201384085	4060.3402508353997	787.43197251861	-474.78181677063577	4067.4415572408006	798.5729510056101	-498.92925838633147	4055.020826802541	801.501307198436	-522.6035596017089	4046.44453388152	800.2347009437011	-539.0658729910751	4039.357731194401	796.3506492503227	-552.7688541718952	4070.5140149779336	787.6022706106129	-501.5379357118408	4076.9907093416705	776.2155511941626	-540.2555894659683	4069.9738700770745	769.0500114867802	-564.6304100355494	4058.723517658936	768.5880791298906	-575.3897725039898	4044.7654505424443	770.8990560727198	-581.3310918445509	4069.940768823952	779.0430637705904	-500.00167094289935	4075.9511556361613	763.3069099327671	-536.935465461616	4068.183348341493	754.3963958525521	-563.2017503815753	4054.5569102227423	753.3153257761967	-576.0234292008311	4039.2583376443404	755.5893386916894	-582.4469636500249	4069.489280188357	773.2549765851602	-497.9619173988175	4074.8313903382423	754.0353720670731	-529.3896976807334	4067.93665709507	745.1784750396846	-551.8860796069512	4054.7268591995917	743.5566108222197	-564.0425515552328	4040.3110537549837	745.420341124924	-569.9822759632908	4067.845541550232	767.1625457508318	-494.22438179221615	4072.132603774955	745.6688345098208	-520.8709233813133	4066.393491588848	736.959365375672	-538.1278903452506	4056.6527219516292	734.9940800303399	-546.6285390236651	4043.821950597802	736.1948257608143	-551.6793367793124	3855.120224685352	1194.639218766708	-95.53169012987469	3808.4920045902027	1129.9896667519447	7.677877536430685	3959.838502702822	973.0342761264293	-158.0237326641853	4050.64226082955	848.7997276558642	-374.48437982180934	4074.731620566964	858.924016378566	-391.4850538201517	4107.13528485064	848.3751678370969	-402.753550000805	4129.080915317667	837.8013915977982	-411.67659817354354	4146.845404362814	826.22539896679	-420.03555702034123	4074.083255174358	849.4279212600169	-398.1854208703598	4110.357824687435	833.4574814458855	-432.8334081180629	4138.993151501776	816.2278597865138	-450.08314489630527	4156.3479865233	806.0276351018485	-453.47602561636336	4170.410566762755	797.9298844064124	-451.33915018923864	4071.294834108918	840.9146596381194	-399.57895246417627	4105.166737986351	820.7344889040385	-434.1292736252117	4135.932225366803	800.8543985204615	-453.0150805080533	4156.63920721879	788.0303560393694	-457.1386367591982	4171.91392062963	778.9182105531561	-454.81516289751954	4068.3678718295655	835.3454015298441	-399.7629208700335	4096.091535645424	812.5360787575397	-431.13119867045594	4122.361819800772	794.1369154588358	-447.601073211743	4142.04590720673	781.1980270552899	-451.58329815871446	4156.27082797634	772.3606385808068	-449.4008822868804	4064.1898597705235	829.0912608374146	-398.31258576696075	4086.948876717449	804.4367838060775	-426.4809687538973	4107.0141802560875	788.1307730613242	-439.54595113514836	4120.902140656307	777.9323553196583	-442.3908774469245	4133.232790638446	769.6660485413905	-440.42323091876483
2	0.004	4198.941	914.58397	126.699	4254.432752216047	897.2059165792018	53.23324675514199	4159.780613587371	500.4432189213157	-42.3117188809725	4142.803573513018	108.94154346542494	-117.92830108475033	3990.9772301751436	31.947815105523542	-30.98364488652523	4158.2150599619545	906.0871394407657	211.63578504200007	4068.254205694041	504.0408944325202	287.0216765790737	3996.3322086588328	79.55929674325313	378.01286039948155	3874.61407256284	-2.820435304979216	255.7949853103964	4130.24100998547	1030.7354201110056	78.80917729234562	4065.9796344959354	1084.8144056853123	29.85326679594201	3996.2517253288834	1134.0286126517246	-24.587619475216854	3926.237256087192	1169.9039852071926	-81.59959679492151	3850.3982840454482	1208.806435867659	-140.84680806420272	3779.78318891465	1244.6942914279125	-192.19611214074342	3641.1522469102947	1323.2880115791022	-198.7889987592862	3895.7780389576283	1197.0477150746892	-145.62915259679028	3952.739873934536	1185.9146007216916	-262.77665386652546	4035.4103726233293	928.3133872500987	-292.6019195684234	4060.4493989909483	788.2380670260521	-475.47705430013553	4067.4521916077097	799.2923709984341	-499.71151420064496	4054.799781817447	802.2513319114412	-523.4028253417455	4046.067358440097	801.0287945925575	-539.8603111288305	4038.854854764866	797.2009496587445	-553.545003553376	4070.5480129495754	788.3898825652236	-502.2711802587792	4076.869741803233	777.0828532898335	-540.9730435074761	4069.6717610885134	770.0017876653724	-565.3220416297576	4058.276339477244	769.5835782199824	-576.0720137892164	4044.1763057005414	771.9248126856367	-582.0100566066133	4069.9908485918236	779.8911764510024	-500.6894093423606	4075.8588068437916	764.2654660306922	-537.5831934251626	4067.8958712172066	755.4548898158241	-563.8153279209463	4054.095626650883	754.4302949094223	-576.6228122017965	4038.6423075189377	756.7392257014402	-583.0413684741338	4069.5554232909935	774.1436695574375	-498.6179471319271	4074.7860212437377	755.0578899881546	-529.982458036769	4067.72401904754	746.2958591445259	-552.4430328512275	4054.348060241	744.7325898464529	-564.5826051375268	4039.7874596674374	746.6311043858597	-570.5161281372543	4067.9288001271166	768.0967239557955	-494.8440201064597	4072.1265931609005	746.7533887088432	-521.4102200819285	4066.258395404985	738.1314074967993	-538.6293650018567	4056.3987772664213	736.2144354263835	-547.113260988145	4043.4410936447257	737.4492034492237	-552.1560181038765	3855.3136566486505	1194.901636905584	-95.51802637118739	3808.5311877184067	1130.0395713230623	7.674551070073843	3959.847742345104	973.1221266344944	-158.42134713624526	4051.0472899724327	849.3270481592442	-374.91911895870476	4075.1893532490412	859.4202984584769	-392.04937522850906	4107.801434577271	848.9353068056455	-403.370483532898	4129.897462164825	838.4191695157704	-412.3146939240691	4147.791826959059	826.9024949030447	-420.67805513647204	4074.551549453624	849.9629993567692	-398.710851568773	4110.9990910027645	834.0773655402265	-433.41968347577216	4139.824830258184	816.9364847628872	-450.68666136676444	4157.318785584427	806.7904389459737	-454.08437002559015	4171.510507310769	798.736861742861	-451.94751526136827	4071.7747298171976	841.4840171407609	-400.05897741598756	4105.821600234159	821.4050971194497	-434.64409299227043	4136.795922287203	801.6261272769663	-453.54249433360457	4157.671255035952	788.8695054951528	-457.66889005523797	4173.08751999054	779.8066926103035	-455.3439887431487	4068.850907543755	835.9366151109326	-400.20948048821424	4096.732222627992	813.2364234811546	-431.58037522249055	4123.185340339035	794.929618208167	-448.0548129156926	4143.032246913052	782.0580049071707	-452.03637002842885	4157.39046522166	773.2680647004911	-449.8509967011624	4064.6765638851534	829.7067727553201	-398.7175057692296	4087.5803401279704	805.1667312085889	-426.8631935781538	4107.7926331676435	788.9407919609058	-439.9218117388302	4121.79963757815	778.7944014544249	-442.76140453807585	4134.248530365616	770.5718287634521	-440.78834932935536
3	0.008	4198.941	914.58397	126.699	4254.479064528429	897.2353606161217	53.25338814991009	4159.7758064999125	500.4715863826026	-42.238082665251085	4142.728778762089	108.96631059995451	-117.83022870146534	3990.9042068233352	31.9765019047924	-30.87906405419111	4158.163458847691	906.0540408190714	211.61432274944693	4068.152636633333	504.022790239113	287.0207510375574	3996.2422623732186	79.548078589205	378.06243449704755	3874.525150796853	-2.826158341219176	255.83977839901667	4130.2625184538865	1030.7503750815993	78.81395364345998	4066.0939531461017	1084.9478226359477	29.86993633854481	3996.4438078065928	1134.2723234015223	-24.569372529621386	3926.453775004879	1170.1946453827622	-81.58119092208956	3850.6378802071395	1209.1433370484476	-140.82709387970792	3780.039721067879	1245.0674961590742	-192.17381001415598	3641.3736801368145	1323.6129900257686	-198.70493674326758	3896.02067704427	1197.3859349554157	-145.6115231877065	3953.1783337874263	1186.576248478283	-262.92888797826475	4035.702703170991	928.7740645168856	-293.1918031757161	4060.506249149467	789.0789037868147	-476.20684022560886	4067.4172995743556	800.0401286964374	-500.55002758588205	4054.5180514443923	803.0201499890998	-524.2781352190295	4045.6159444527934	801.8352642424135	-540.7416256003447	4038.2638775138853	798.0584723660712	-554.4145384168371	4070.527659415743	789.2063539070847	-503.05164458768655	4076.6745584665014	777.9696305826831	-541.7481651469479	4069.2746923812515	770.9649742121372	-566.0810944099034	4057.7214888727767	770.5851730298565	-576.8306929663995	4043.469090100463	772.9520631715003	-582.7749143125538	4069.9787891013966	780.7690259538995	-501.41610613275645	4075.6807333407373	765.2450809311853	-538.2756009251108	4067.499061874764	756.5257865216216	-564.4831072878201	4053.5092071246404	755.5513241325873	-577.2867375107937	4037.8895371958974	757.89017118197	-583.7103996368338	4069.5544788065113	775.0629739848379	-499.3067894624564	4074.648268304606	756.1040457287	-530.6076994397497	4067.3974641815203	747.429497431032	-553.0396126876685	4053.8395925913173	745.9187905670542	-565.1716465495043	4039.123045200308	747.8474271257887	-571.1081592227099	4067.9394751860073	769.0626736508125	-495.48941923824594	4072.0215597116126	747.8640813993075	-521.970486997537	4066.005651068618	739.3239570914135	-539.1557327672402	4056.0150261587683	737.4510343115953	-547.628834112778	4042.920166887923	738.7157729918407	-552.6711915788894	3855.5344349813086	1195.2057818649248	-95.49671142462014	3808.5903743453596	1130.1259998693906	7.678449460239052	3959.879018943127	973.2500190259035	-158.8355421238302	4051.4658465651196	849.9022188252118	-375.3852675920856	4075.677570556465	859.969447009926	-392.66065858176813	4108.515464200289	849.5603764414676	-404.0275904176238	4130.772211379836	839.1096960593314	-412.98564092430155	4148.803524635896	827.6583576301031	-421.3450807132131	4075.0450833533946	850.5484717097928	-399.27701271856927	4111.678491441238	834.753007687805	-434.0441969272598	4140.70563866801	817.709089916624	-451.3179082738318	4158.347119039179	807.6248580353778	-454.7114033534385	4172.675997008794	799.6234760979527	-452.5653933880837	4072.274639716069	842.1022083160117	-400.57234576611773	4106.5062266349305	822.1289252618504	-435.18583157785037	4137.700652946578	802.4598302696703	-454.0843837722803	4158.754126778317	789.7797361734796	-458.20224172431335	4174.320542987589	780.7749823377249	-455.86564480204567	4069.3499069853037	836.5753745326947	-400.6842997290187	4097.394008258975	813.9869858376446	-432.0478505934193	4124.0390221485595	795.7799399680578	-448.51501568240246	4144.057787838659	782.984264593343	-452.48440500642425	4158.557198339385	774.2499201555488	-450.28617054889014	4065.1744236390823	830.3685716881143	-399.1443340354151	4088.224609207108	805.9444796286799	-427.25451468863315	4108.58994106373	789.8041701822035	-440.29578962867595	4122.721998960169	779.7159474204483	-443.1209344112665	4135.295791710869	771.5442235538968	-441.13327959782714
4	0.013	4198.941	914.58397	126.699	4254.523315164839	897.263305987477	53.27272476090003	4159.765236886885	500.4991097288189	-42.16425249027315	4142.6543885256415	108.99051306309369	-117.7341711264301	3990.8316288572714	32.00426167758804	-30.776749283733107	4158.1133374216715	906.0220070612421	211.59341357010106	4068.0499826228884	504.00598429155855	287.01844985454835	3996.1534258488787	79.53725555790493	378.1078584207951	3874.437795520242	-2.831971792935925	255.88029723137285	4130.28671528669	1030.767343327813	78.81989479916344	4066.2240319866905	1085.1010032589581	29.89082521203005	3996.6621296017624	1134.5520051022954	-24.545371820882064	3926.698993087707	1170.5266768591152	-81.55669280091502	3850.9088050900873	1209.5272911618515	-140.80096288711917	3780.330120817982	1245.4931005322053	-192.14482734166663	3641.6283427523013	1323.9892246080346	-198.61588199924455	3896.2944170435376	1197.7706150878691	-145.58803433230491	3953.6528341203793	1187.2944606897915	-263.08216866554983	4036.051276141043	929.2752294979948	-293.8074879130533	4060.5058204526267	789.9408035482274	-476.9843993647564	4067.3322485343692	800.802538671391	-501.45746469926985	4054.1727957825115	803.793511009262	-525.2418023844092	4045.088805587444	802.6393528402563	-541.7220827787951	4037.5845315060787	798.9079410918146	-555.3898564753683	4070.44862677802	790.0376093435839	-503.89269756538755	4076.4026704268	778.8607110260392	-542.5951076953581	4068.782009795876	771.9235476524256	-566.9220525857484	4057.059528662011	771.5764397479411	-577.6801589931879	4042.6454254361715	773.9641393306368	-583.6396719112515	4069.9005112291447	781.6622630307725	-502.19563417458	4075.4147836273287	766.2301875040698	-539.0275985453693	4066.9927983585458	757.5925571171744	-565.2204239007923	4052.7990111949093	756.6613858389835	-578.0304079398587	4037.0025512097477	759.024872472536	-584.4689006003364	4069.48249163316	775.9983749534648	-500.04265699656247	4074.4159982200376	757.1580890073625	-531.2808699518613	4066.956653278344	748.5627698547712	-553.6917008600168	4053.2025593702724	747.0980951434428	-565.8254632894456	4038.320015214918	749.0519249828212	-571.7738348337267	4067.8737374289517	770.0457213882083	-496.1751318267134	4071.8154078137927	748.9850076352021	-522.567632109005	4065.6346309314026	740.5203689764975	-539.7233424774757	4055.501908212062	738.6868472670994	-548.191583704576	4042.260594527426	739.97725662625	-553.2409234167895	3855.785000490938	1195.553727188802	-95.46859267722608	3808.6737959232605	1130.2518236343783	7.689336816047353	3959.936254191686	973.4194076383109	-159.2655537752144	4051.8996741595884	850.520173414059	-375.87854039388213	4076.198087229557	860.565767570555	-393.3138084591757	4109.278210144209	850.2430828399494	-404.7194593349723	4131.705217874403	839.8645493755494	-413.6839367035636	4149.879815040035	828.48361290224	-422.0311655789968	4075.5653917433174	851.1786187053708	-399.8791773364835	4112.3965546157615	835.4772778118231	-434.7021076694407	4141.635015665878	818.5371202142178	-451.972067956065	4159.43169442946	808.5213289288507	-455.35228242499903	4173.90510158562	800.5792467457626	-453.18789334017777	4072.7958426380706	842.7635032161302	-401.11468989914835	4107.220776162893	822.8988622500942	-435.75020504945365	4138.645356220577	803.3468440658397	-454.63653768950996	4159.885864093961	790.7511693256599	-458.7344727823087	4175.610321717872	781.8121979895687	-456.3758707266535	4069.865996877935	837.2559826881624	-401.183267558964	4098.076892630144	814.7808715086865	-432.52981047147114	4124.921771961644	796.6796382870089	-448.9779798550662	4145.1205553005275	783.9673939473663	-452.9237198327999	4159.768377969034	775.2958509019602	-450.70269397142846	4065.6843951200653	831.0710067212029	-399.5892602767716	4088.8815116548035	806.763321900747	-427.6515785794994	4109.405014254902	790.7131337351918	-440.66469637563193	4123.667471968881	780.6883722707149	-443.4663283427018	4136.372212522903	772.5737811270852	-441.4548802325418
